<?xml version="1.0" encoding="UTF-8"?><!DOCTYPE svg PUBLIC "-//W3C//DTD SVG 1.1//EN" "http://www.w3.org/Graphics/SVG/1.1/DTD/svg11.dtd"><svg xmlns="http://www.w3.org/2000/svg"><defs>
        <style>
            .cls-1{fill:#1e8bf0}
        </style>
    </defs><symbol id="icon-arr" viewBox="0 0 8.96 9.04">
    <title>
        arr
    </title>
    <path d="M2.08 1.2V0H9v6.88H7.76V2l-.63.69-.63.67q-.3.32-.55.55l-.51.49L.88 9 0 8.08l4.56-4.56.44-.43.64-.65q.29-.3.64-.62L7 1.2H2.08z"/>
</symbol><symbol id="icon-arrow-right" viewBox="0 0 21.14 17.08">
    <title>
        arrow-left
    </title>
    <path d="M12.6 17.08L11 15.61l6.16-6.09-1.61.07-1.61.05H0V7.42h13.93l1.61.05 1.61.07L11 1.47 12.6 0l8.54 8.54z"/>
</symbol><symbol id="icon-arrow" viewBox="0 0 54.02 57.98">
    
    <title>
        arrow
    </title>
    <path d="M28.3-.01l4.5 4.62L9.01 28.99l23.8 24.4-4.51 4.6-28.29-29zm21.22 0l4.49 4.63-23.79 24.37 23.79 24.38-4.49 4.62-28.3-29z"/>
</symbol><symbol id="icon-loading" viewBox="0 0 15 15">
    <style>
        .st0{fill:#ff4d00}
    </style>
    <circle class="st0" cx="7.5" cy="7.5" r="7.5"/>
</symbol><symbol id="icon-logo-grey" viewBox="0 0 88.3 25">
    <style>
        .st0{fill-rule:evenodd;clip-rule:evenodd;fill:#b3b2b9}
    </style>
    <path class="st0" d="M65.8 9.5c-.9.3-1.2-.1-1.2-.6 0-1 1.1-1.3 1.7-.2 1.1 2.1.5 10-2.1 10-3.4 0-3.1-10.1-.3-10.7-1 1.5.1 3.4 2.1 2.6 0-.2-.1-.9-.2-1.1zM35.3 0c-2.7.7-2.5 2.6-1.8 3.9.3.5.8 1.5 1.6 1.2.2-.1.5-.2.5-.4 0-1.1.6-2.3 1.2-3.3.8-1.2-1-1.5-1.5-1.4zM23.9 21.9c-1.2 1.4-3.4.4-3.8-1.2-.4-1.7.1-3.9 1-4.4.7 4.7 7.7 5.2 9.4.6-.2 5.4 6.4 5.5 7.7.7.5 2.7 3.8 2.6 3.9 2.2-.8-.8.4-10 2.9-10.3 2.1-.1-2.8 9.3 1.8 10.6 1 .3 2.3-.2 2.2-.8-1-1.1 0-10 2.4-10.6 1.9-.5.4 4.9-.1 8.1-.8 5 7.3 6.5 7.6.5.3 1.9 3.1 3.2 5.2 3.1 5.7-.3 7.8-7.3 5.5-11.1.2-.7 1.6-1.3 2.2-.6 1 1.1-.3 5-.4 6.4-.2 2.6.6 3.5 4.4 5.8.4.3.5.2 1.3-.2 4.1-1.7 5.9-3.1 6.1-7.5.2-4-.6-4.6-2-5.5 1.6.1 6.7 1.4 5.3 3.7 1.8.9 2.3-2.9 1.3-4-2.1-2.3-8.7.2-9.5-1.2-.6.2.4 1.8.5 2.1.8 2.3-.3 9.1-2 11.1-.3.4-.6.1-.8-.2-2.7-2.9 1.8-8.3-.3-11.7-1.2-2-5.6-.8-6.8.8-2.2-2.6-6.6-2.1-8.8.3-1.1 1.2-1.9 3-2.1 5.4-.1.9-.1 1.8-.1 2.6-.2 3.3-2.3 3.9-2.2 1.7.1-1.6.8-4.3 1-6.6.2-1.9-.6-4.8-3-5.2-3.4-.5-4.9 3-5.2 4.7.4-4.4-5-4.4-6.2-.5 0-1.6.1-3.4-1.3-4.2-.8-.4-2.8-.4-3.4.1 2 1.5-.2 13.7-2.3 12.2-2-1.4 1.8-9.7.6-11.4-1.1-1.6-4.1-.6-4.3 0 .9 3-2.2 12.4-5 10.9-1.6-.9-2.4-6.2.2-13.7 1.8-5.2 2.3 4.1-.7 6.4 0 .1-.2 1.5-.2 1.7 1.2-.7 3.2-3 3.7-5.3.8-3.4 0-6.8-3.2-6.2-4.9 1-6 9.2-5.7 13.4-1.2.9-1.8 2-1.7 3-1-3.9-2.3-7.6-8.1-7.8 0-.4 2.8-7.5 3.2-5.9.4 1.5-.9 4.8 1.1 5.6.9.3 2.1-.1 3-.5.4-.2.7-.4 1-.7-1.5-.4-.6-4.3-.5-5.5.1-3.4-5.3-1.8-5.7-1.3-2.9 3.4-5.6 13-5.8 15.8-1-.7 2-11.5 2.1-12.5.2-3-1.5-4.6-4.7-3.7-3.4.9-6.6 5-3 6.8 1.1.5 2.5.5 2.6 0 0 0-2.4-2.9.1-5.1 2.2-.9.3 5.2 0 6.5h-.9c-.3.8.2 1.4.5 1.5-.7 3.1-4 9.7 4.7 9.5-.6-1.7 1-8 1.4-9.3 2.4.3 3.2 9.4 5.4 11.9 3.7 4.5 8.7.4 8.5-1z"/>
</symbol><symbol id="icon-logo" viewBox="0 0 88.3 25">
    <style>
        .st0{fill-rule:evenodd;clip-rule:evenodd;fill:#262626}
    </style>
    <path class="st0" d="M65.8 9.5c-.9.3-1.2-.1-1.2-.6 0-1 1.1-1.3 1.7-.2 1.1 2.1.5 10-2.1 10-3.4 0-3.1-10.1-.3-10.7-1 1.5.1 3.4 2.1 2.6 0-.2-.1-.9-.2-1.1zM35.3 0c-2.7.7-2.5 2.6-1.8 3.9.3.5.8 1.5 1.6 1.2.2-.1.5-.2.5-.4 0-1.1.6-2.3 1.2-3.3.8-1.2-1-1.5-1.5-1.4zM23.9 21.9c-1.2 1.4-3.4.4-3.8-1.2-.4-1.7.1-3.9 1-4.4.7 4.7 7.7 5.2 9.4.6-.2 5.4 6.4 5.5 7.7.7.5 2.7 3.8 2.6 3.9 2.2-.8-.8.4-10 2.9-10.3 2.1-.1-2.8 9.3 1.8 10.6 1 .3 2.3-.2 2.2-.8-1-1.1 0-10 2.4-10.6 1.9-.5.4 4.9-.1 8.1-.8 5 7.3 6.5 7.6.5.3 1.9 3.1 3.2 5.2 3.1 5.7-.3 7.8-7.3 5.5-11.1.2-.7 1.6-1.3 2.2-.6 1 1.1-.3 5-.4 6.4-.2 2.6.6 3.5 4.4 5.8.4.3.5.2 1.3-.2 4.1-1.7 5.9-3.1 6.1-7.5.2-4-.6-4.6-2-5.5 1.6.1 6.7 1.4 5.3 3.7 1.8.9 2.3-2.9 1.3-4-2.1-2.3-8.7.2-9.5-1.2-.6.2.4 1.8.5 2.1.8 2.3-.3 9.1-2 11.1-.3.4-.6.1-.8-.2-2.7-2.9 1.8-8.3-.3-11.7-1.2-2-5.6-.8-6.8.8-2.2-2.6-6.6-2.1-8.8.3-1.1 1.2-1.9 3-2.1 5.4-.1.9-.1 1.8-.1 2.6-.2 3.3-2.3 3.9-2.2 1.7.1-1.6.8-4.3 1-6.6.2-1.9-.6-4.8-3-5.2-3.4-.5-4.9 3-5.2 4.7.4-4.4-5-4.4-6.2-.5 0-1.6.1-3.4-1.3-4.2-.8-.4-2.8-.4-3.4.1 2 1.5-.2 13.7-2.3 12.2-2-1.4 1.8-9.7.6-11.4-1.1-1.6-4.1-.6-4.3 0 .9 3-2.2 12.4-5 10.9-1.6-.9-2.4-6.2.2-13.7 1.8-5.2 2.3 4.1-.7 6.4 0 .1-.2 1.5-.2 1.7 1.2-.7 3.2-3 3.7-5.3.8-3.4 0-6.8-3.2-6.2-4.9 1-6 9.2-5.7 13.4-1.2.9-1.8 2-1.7 3-1-3.9-2.3-7.6-8.1-7.8 0-.4 2.8-7.5 3.2-5.9.4 1.5-.9 4.8 1.1 5.6.9.3 2.1-.1 3-.5.4-.2.7-.4 1-.7-1.5-.4-.6-4.3-.5-5.5.1-3.4-5.3-1.8-5.7-1.3-2.9 3.4-5.6 13-5.8 15.8-1-.7 2-11.5 2.1-12.5.2-3-1.5-4.6-4.7-3.7-3.4.9-6.6 5-3 6.8 1.1.5 2.5.5 2.6 0 0 0-2.4-2.9.1-5.1 2.2-.9.3 5.2 0 6.5h-.9c-.3.8.2 1.4.5 1.5-.7 3.1-4 9.7 4.7 9.5-.6-1.7 1-8 1.4-9.3 2.4.3 3.2 9.4 5.4 11.9 3.7 4.5 8.7.4 8.5-1z"/>
</symbol></svg>